<svg xmlns="http://www.w3.org/2000/svg" width="1024" height="1024" viewBox="-20.256000518798828 -40.15462875366211 1064.5089721679688 1105.1265869140625" class="colorable-icon reset-top-left-margin" data-export-recolorable-svg="true" overflow="visible" xmlns:xlink="http://www.w3.org/1999/xlink" fill="rgb(0, 0, 0)" stroke="none"><g fill="none" stroke="rgb(239, 156, 130)" stroke-width="45" stroke-linecap="round" stroke-linejoin="round"><path d="M 809.413,121.901 C 870.892,122.588 885.14,123.757 899.263,126.239 C 918.496,131.894 932.985,137.78 947.255,146.17 C 961.626,157.507 970.11,166.221 980.717,180.395 C 988.382,194.731 993.616,209.023 996.503,223.402 Q 998.9,242.532 999.253,299.987" data-line="nan" stroke-width="45.0" fill="none" stroke="rgb(239, 156, 130)"/><path d="M 214.656,132.63 C 214.712,177.472 217.062,190.53 220.021,198.419 C 225.178,206.272 231.979,212.84 239.813,217.553 C 252.069,221.153 261.338,221.63 273.414,219.093 C 283.514,213.595 292.216,205.29 297.063,197.325 Q 300.737,184.924 301.392,172.673" data-line="nan" stroke-width="45.0" fill="none" stroke="rgb(239, 156, 130)"/><path d="M 723.37,129.163 C 723.528,177.46 724.684,187.541 728.598,198.574 C 731.943,204.225 739.075,211.652 746.503,216.591 C 755.93,220.461 767.581,221.783 779.217,219.781 C 790.612,214.449 799.892,205.937 805.601,196.205 Q 808.585,186.43 809.532,173.613" data-line="nan" stroke-width="45.0" fill="none" stroke="rgb(239, 156, 130)"/><path d="M 998.922,890.657 C 998.312,907.713 995.947,921.855 991.237,937.109 C 985.193,950.614 977.3,963.772 968.277,975.489 C 957.349,986.547 945.11,996.284 935.261,1002.45 C 920.794,1009.32 905.9,1014.294 892.04,1017.429 Q 870.694,1019.731 813.164,1019.972" data-line="nan" stroke-width="45.0" fill="none" stroke="rgb(239, 156, 130)"/><path d="M 166.979,1019.972 C 150.2,1019.649 133.586,1017.917 116.593,1014.244 C 102.36,1009.42 90.02,1003.58 76.23,994.861 C 64.029,984.675 54.738,974.857 45.536,962.681 C 38.863,951.351 32.909,938.259 27.942,922.428 Q 24.891,901.169 24.771,850.769" data-line="nan" stroke-width="45.0" fill="none" stroke="rgb(239, 156, 130)"/><path d="M 26.711,222.937 C 29.407,211.421 33.74,198.947 39.688,186.501 C 47.287,174.663 54.779,165.342 64.326,155.828 C 75.032,147.385 87.213,139.862 98.814,134.315 C 111.366,129.814 124.562,126.264 136.781,124.088 Q 160.597,122.225 214.652,121.802" data-line="nan" stroke-width="45.0" fill="none" stroke="rgb(239, 156, 130)"/><path d="M 294.529,24.394 C 288.55,16.794 278.787,9.444 270.018,5.878 C 259.549,4.0 251.266,4.75 242.014,7.588 C 233.475,12.478 225.039,20.334 219.119,29.503 C 217.237,34.102 215.177,43.411 214.656,132.63" data-line="nan" stroke-width="45.0" fill="none" stroke="rgb(239, 156, 130)"/><path d="M 802.835,25.127 C 795.655,16.308 786.417,9.667 776.54,5.713 C 767.165,4.25 758.222,5.087 746.198,9.477 C 738.94,13.8 731.435,21.787 726.286,31.331 Q 723.838,42.751 723.37,129.163" data-line="nan" stroke-width="45.0" fill="none" stroke="rgb(239, 156, 130)"/><path d="M 999.252,333.931 L 24.752,333.964" data-line="0.0" stroke-width="45.0" fill="none" stroke="rgb(239, 156, 130)"/><path d="M 24.744,325.986 L 26.711,222.937" data-line="2.0" stroke-width="45.0" fill="none" stroke="rgb(239, 156, 130)"/><path d="M 723.413,121.407 L 301.326,121.468" data-line="4.0" stroke-width="45.0" fill="none" stroke="rgb(239, 156, 130)"/><path d="M 999.253,299.987 L 998.922,890.657" data-line="6.0" stroke-width="45.0" fill="none" stroke="rgb(239, 156, 130)"/><path d="M 813.164,1019.972 L 166.979,1019.972" data-line="8.0" stroke-width="45.0" fill="none" stroke="rgb(239, 156, 130)"/><path d="M 24.771,850.769 L 24.744,325.986" data-line="10.0" stroke-width="45.0" fill="none" stroke="rgb(239, 156, 130)"/><path d="M 301.392,172.673 L 294.529,24.394" data-line="12.0" stroke-width="45.0" fill="none" stroke="rgb(239, 156, 130)"/><path d="M 809.532,173.613 L 802.835,25.127" data-line="14.0" stroke-width="45.0" fill="none" stroke="rgb(239, 156, 130)"/></g></svg>