<svg xmlns="http://www.w3.org/2000/svg" width="1024" height="1024" viewBox="149.1750030517578 -41 725.6136474609375 1105.946044921875" class="colorable-icon reset-top-left-margin" data-export-recolorable-svg="true" overflow="visible" xmlns:xlink="http://www.w3.org/1999/xlink" fill="rgb(0, 0, 0)" stroke="none"><g fill="none" stroke="rgb(0, 0, 0)" stroke-width="45" stroke-linecap="round" stroke-linejoin="round"><path d="M 540.391,801.188 C 503.719,791.113 479.552,782.042 455.634,770.226 C 443.641,762.978 431.474,754.393 415.969,740.512 C 398.894,720.457 388.765,704.511 371.611,671.739" data-line="nan" stroke-width="45.0" fill="none" stroke="rgb(0, 0, 0)"/><path d="M 762.288,919.636 L 255.429,921.323" data-line="0.0" stroke-width="45.0" fill="none" stroke="rgb(0, 0, 0)"/><path d="M 809.671,1019.946 L 692.489,777.224" data-line="1.0" stroke-width="45.0" fill="none" stroke="rgb(0, 0, 0)"/><path d="M 809.671,1019.946 L 257.311,1016.259" data-line="2.0" stroke-width="45.0" fill="none" stroke="rgb(0, 0, 0)"/><path d="M 255.429,921.323 L 255.593,1007.193" data-line="3.0" stroke-width="45.0" fill="none" stroke="rgb(0, 0, 0)"/><path d="M 255.593,1007.193 L 257.311,1016.259" data-line="4.0" stroke-width="45.0" fill="none" stroke="rgb(0, 0, 0)"/><path d="M 692.2540336010895,776.7787743044614 A 239.8199789766179,239.8199789766179 0 0,1 540.3963607812578,801.1562482490096" data-line="6.0" stroke-width="45.0" fill="none" stroke="rgb(0, 0, 0)"/><path d="M 540.391,801.188 L 509.718,920.135" data-line="8.0" stroke-width="45.0" fill="none" stroke="rgb(0, 0, 0)"/><path d="M 496.838,492.38 L 354.271,392.595" data-line="9.0" stroke-width="45.0" fill="none" stroke="rgb(0, 0, 0)"/><path d="M 463.77,469.397 L 411.056,545.074" data-line="10.0" stroke-width="45.0" fill="none" stroke="rgb(0, 0, 0)"/><path d="M 411.056,545.074 L 333.928,491.252" data-line="11.0" stroke-width="45.0" fill="none" stroke="rgb(0, 0, 0)"/><path d="M 389.815,417.722 L 333.928,491.252" data-line="12.0" stroke-width="45.0" fill="none" stroke="rgb(0, 0, 0)"/><path d="M 580.651,62.678 L 354.271,392.595" data-line="13.0" stroke-width="45.0" fill="none" stroke="rgb(0, 0, 0)"/><path d="M 725.012,161.531 L 606.028,80.08" data-line="14.0" stroke-width="45.0" fill="none" stroke="rgb(0, 0, 0)"/><path d="M 725.012,161.531 L 694.23,140.434" data-line="15.0" stroke-width="45.0" fill="none" stroke="rgb(0, 0, 0)"/><path d="M 725.012,161.531 L 496.838,492.38" data-line="16.0" stroke-width="45.0" fill="none" stroke="rgb(0, 0, 0)"/><path d="M 496.838,492.38 L 463.77,469.397" data-line="18.0" stroke-width="45.0" fill="none" stroke="rgb(0, 0, 0)"/><path d="M 389.815,417.722 L 354.271,392.595" data-line="19.0" stroke-width="45.0" fill="none" stroke="rgb(0, 0, 0)"/><path d="M 748.526,64.398 L 658.207,4.0" data-line="20.0" stroke-width="45.0" fill="none" stroke="rgb(0, 0, 0)"/><path d="M 748.526,64.398 L 694.23,140.434" data-line="21.0" stroke-width="45.0" fill="none" stroke="rgb(0, 0, 0)"/><path d="M 658.207,4.0 L 606.028,80.08" data-line="22.0" stroke-width="45.0" fill="none" stroke="rgb(0, 0, 0)"/><path d="M 692.1709686059983,776.6021224392085 A 249.96884672752276,249.96884672752276 0 0,0 814.1803051811362,636.9397230172833" data-line="23.0" stroke-width="45.0" fill="none" stroke="rgb(0, 0, 0)"/><path d="M 571.643,671.818 L 194.175,671.694" data-line="25.0" stroke-width="45.0" fill="none" stroke="rgb(0, 0, 0)"/><path d="M 370.521,671.317 L 371.611,671.739" data-line="54.0" stroke-width="45.0" fill="none" stroke="rgb(0, 0, 0)"/><path d="M 814.036,636.889 C 829.1643407881396,592.8695160692167 833.4909308188078,552.3382367632285 826.605,504.585" data-line="55.0" stroke-width="45.0" fill="none" stroke="rgb(0, 0, 0)"/><path d="M 826.7376583323293,504.56515573900623 A 307.1206225881519,307.1206225881519 0 0,0 649.3754764655107,270.0882331850174" data-line="56.0" stroke-width="45.0" fill="none" stroke="rgb(0, 0, 0)"/></g></svg>