<svg xmlns="http://www.w3.org/2000/svg" width="1024" height="1024" viewBox="73.75881958007812 -40.61818504333496 876.80419921875 1105.6181640625" class="colorable-icon reset-top-left-margin" data-export-recolorable-svg="true" overflow="visible" xmlns:xlink="http://www.w3.org/1999/xlink" fill="rgb(0, 0, 0)" stroke="none"><g fill="none" stroke="rgb(249, 238, 231)" stroke-width="45" stroke-linecap="round" stroke-linejoin="round"><path d="M 504.552,1017.636 C 491.801,1012.38 480.349,1003.58 435.787,950.273 C 386.614,889.154 342.676,832.168 307.373,783.931 C 271.832,732.53 245.001,691.57 220.866,652.6 C 199.165,615.414 175.673,572.306 159.909,540.591 C 147.233,511.61 137.968,486.411 130.828,462.656" data-line="nan" stroke-width="45.0" fill="none" stroke="rgb(249, 238, 231)"/><path d="M 130.828,462.656 C 125.466,440.107 121.728,418.905 119.569,400.951 C 118.44,380.965 118.506,360.42 119.673,340.751 C 122.444,320.089 126.084,301.387 131.0,281.756 C 137.861,260.159 144.199,243.63 153.666,222.401 C 162.872,204.689 174.245,185.719 185.377,169.148 C 198.889,151.502 210.0,138.39 224.05,123.513 C 243.595,104.506 258.318,91.793 272.906,80.609 C 290.24,68.802 310.033,56.941 329.029,46.885 C 348.692,37.587 367.544,29.813 399.852,19.584 C 420.384,14.82 441.54,10.993 494.731,4.603 C 509.464,4.0 523.896,4.544 556.082,7.307 C 574.76,9.891 615.353,17.894 636.546,23.591 C 654.673,29.601 673.284,37.149 689.415,44.759 C 726.661,65.454 744.359,76.992 760.06,88.39 C 785.427,110.373 813.218,139.206 829.317,158.827 C 840.05,173.527 850.514,189.411 861.556,208.326 C 870.645,226.044 878.835,244.547 886.03,263.808 C 891.839,282.613 897.115,302.92 901.047,322.727 C 903.767,342.727 905.495,366.057 905.563,381.031 L 904.256,398.291" data-line="nan" stroke-width="45.0" fill="none" stroke="rgb(249, 238, 231)"/><path d="M 904.256,398.291 C 900.539,427.56 894.268,456.816 885.147,487.379 C 873.704,517.332 858.126,551.606 836.409,593.457 C 813.689,633.246 786.08,678.292 748.179,736.08 C 703.44,799.69 656.836,862.044 606.944,925.619 C 544.299,1001.843 537.141,1008.486 530.287,1013.099 L 512.124,1020.0" data-line="nan" stroke-width="45.0" fill="none" stroke="rgb(249, 238, 231)"/><path d="M 504.552,1017.636 L 512.124,1020.0" data-line="1.0" stroke-width="45.0" fill="none" stroke="rgb(249, 238, 231)"/><circle cx="511.37896738544686" cy="370.7426363835594" r="184.4149998278235" data-line="3.0" stroke-width="45.0" fill="none" stroke="rgb(249, 238, 231)"/></g></svg>