<svg xmlns="http://www.w3.org/2000/svg" width="1024" height="1024" viewBox="43.099998474121094 -40.34721755981445 936.9520263671875 1105.3472290039062" class="colorable-icon reset-top-left-margin" data-export-recolorable-svg="true" overflow="visible" xmlns:xlink="http://www.w3.org/1999/xlink" fill="rgb(0, 0, 0)" stroke="none"><g fill="none" stroke="url(&quot;#theme-accent-gradient-linear&quot;) rgb(239, 156, 130)" stroke-width="45" stroke-linecap="round" stroke-linejoin="round"><path d="M 395.0,852.784 C 392.62,844.089 388.642,836.298 382.211,828.674 C 375.599,823.293 367.836,819.833 362.607,818.69 L 335.922,818.262" data-line="nan" stroke-width="45.0" fill="none" stroke="url(&quot;#theme-accent-gradient-linear&quot;) rgb(239, 156, 130)"/><path d="M 174.723,603.169 C 114.77,603.061 106.746,602.148 100.524,599.249 C 93.698,592.596 90.556,586.589 88.1,575.653" data-line="nan" stroke-width="45.0" fill="none" stroke="url(&quot;#theme-accent-gradient-linear&quot;) rgb(239, 156, 130)"/><path d="M 328.822,206.895 C 340.852,208.903 351.764,212.53 361.701,218.561 C 369.826,225.757 375.854,233.724 380.89,243.796 Q 384.139,254.175 385.807,266.588" data-line="nan" stroke-width="45.0" fill="none" stroke="url(&quot;#theme-accent-gradient-linear&quot;) rgb(239, 156, 130)"/><path d="M 388.198,334.781 C 390.326,348.284 394.875,362.735 401.056,375.95 C 410.083,389.946 417.128,398.402 432.41,412.536 C 444.996,421.253 459.409,429.042 475.244,435.53 C 493.677,440.56 511.597,443.5 541.234,446.984 C 578.824,442.696 591.342,439.998 604.989,435.872 C 626.024,426.966 636.196,421.41 646.253,414.738 C 662.765,400.797 669.956,392.869 675.812,384.923 C 682.443,373.929 686.135,366.165 690.575,353.701 C 693.042,343.514 695.317,324.886 697.567,264.139 C 699.721,252.816 704.206,240.111 711.693,228.248 C 718.249,221.663 724.877,216.742 732.279,212.698 Q 738.439,210.382 755.905,206.782" data-line="nan" stroke-width="45.0" fill="none" stroke="url(&quot;#theme-accent-gradient-linear&quot;) rgb(239, 156, 130)"/><path d="M 787.891,765.93 C 789.969,739.78 795.375,715.91 800.498,700.939 C 805.743,688.63 812.511,675.195 819.237,663.956" data-line="nan" stroke-width="45.0" fill="none" stroke="url(&quot;#theme-accent-gradient-linear&quot;) rgb(239, 156, 130)"/><path d="M 872.138,590.002 C 883.835,571.227 896.656,547.223 908.049,522.665 C 916.453,501.223 923.189,479.598 928.936,455.151 Q 932.853,430.771 935.052,406.906" data-line="nan" stroke-width="45.0" fill="none" stroke="url(&quot;#theme-accent-gradient-linear&quot;) rgb(239, 156, 130)"/><path d="M 919.199,276.433 C 909.18,245.501 895.791,213.459 881.96,187.183 C 863.169,157.003 846.556,134.951 827.906,114.547 C 806.836,94.422 784.761,77.193 760.444,61.192 C 732.626,46.09 702.665,33.207 669.646,21.982 C 638.849,14.096 604.626,8.016 572.12,4.762 C 538.192,4.121 504.962,6.306 472.958,11.199 C 437.794,19.469 402.364,30.741 376.145,41.687 C 351.157,54.878 318.468,75.794 293.218,94.496 C 272.278,112.424 247.926,137.206 228.835,161.661 C 212.236,187.5 199.012,211.932 187.934,238.256 Q 179.117,267.54 173.66,294.737" data-line="nan" stroke-width="45.0" fill="none" stroke="url(&quot;#theme-accent-gradient-linear&quot;) rgb(239, 156, 130)"/><path d="M 173.66,294.737 C 170.844,316.803 169.385,339.217 170.753,393.908 Q 169.394,401.523 166.749,409.009" data-line="nan" stroke-width="45.0" fill="none" stroke="url(&quot;#theme-accent-gradient-linear&quot;) rgb(239, 156, 130)"/><path d="M 91.762,565.837 L 88.1,575.653" data-line="nan" stroke-width="45.0" fill="none" stroke="url(&quot;#theme-accent-gradient-linear&quot;) rgb(239, 156, 130)"/><path d="M 258.808,818.097 C 241.613,817.034 234.241,815.603 225.934,812.807 C 214.139,806.288 203.067,795.554 194.983,782.559 C 189.954,769.219 187.382,755.545 184.971,727.111" data-line="nan" stroke-width="45.0" fill="none" stroke="url(&quot;#theme-accent-gradient-linear&quot;) rgb(239, 156, 130)"/><path d="M 822.976,1020.0 L 787.891,765.93" data-line="0.0" stroke-width="45.0" fill="none" stroke="url(&quot;#theme-accent-gradient-linear&quot;) rgb(239, 156, 130)"/><path d="M 822.976,1020.0 L 416.175,1019.197" data-line="1.0" stroke-width="45.0" fill="none" stroke="url(&quot;#theme-accent-gradient-linear&quot;) rgb(239, 156, 130)"/><path d="M 416.175,1019.197 L 395.0,852.784" data-line="7.0" stroke-width="45.0" fill="none" stroke="url(&quot;#theme-accent-gradient-linear&quot;) rgb(239, 156, 130)"/><path d="M 335.922,818.262 L 258.808,818.097" data-line="9.0" stroke-width="45.0" fill="none" stroke="url(&quot;#theme-accent-gradient-linear&quot;) rgb(239, 156, 130)"/><path d="M 489.968,206.893 L 594.449,206.341" data-line="10.0" stroke-width="45.0" fill="none" stroke="url(&quot;#theme-accent-gradient-linear&quot;) rgb(239, 156, 130)"/><path d="M 540.115,611.485 L 541.189,209.294" data-line="11.0" stroke-width="45.0" fill="none" stroke="url(&quot;#theme-accent-gradient-linear&quot;) rgb(239, 156, 130)"/><path d="M 385.807,266.588 L 388.198,334.781" data-line="12.0" stroke-width="45.0" fill="none" stroke="url(&quot;#theme-accent-gradient-linear&quot;) rgb(239, 156, 130)"/><path d="M 485.899,614.015 L 597.707,613.875" data-line="13.0" stroke-width="45.0" fill="none" stroke="url(&quot;#theme-accent-gradient-linear&quot;) rgb(239, 156, 130)"/><path d="M 819.237,663.956 L 872.138,590.002" data-line="15.0" stroke-width="45.0" fill="none" stroke="url(&quot;#theme-accent-gradient-linear&quot;) rgb(239, 156, 130)"/><path d="M 935.052,406.906 L 919.199,276.433" data-line="15.0" stroke-width="45.0" fill="none" stroke="url(&quot;#theme-accent-gradient-linear&quot;) rgb(239, 156, 130)"/><path d="M 184.971,727.111 L 174.723,603.169" data-line="19.0" stroke-width="45.0" fill="none" stroke="url(&quot;#theme-accent-gradient-linear&quot;) rgb(239, 156, 130)"/><path d="M 166.749,409.009 L 91.762,565.837" data-line="19.0" stroke-width="45.0" fill="none" stroke="url(&quot;#theme-accent-gradient-linear&quot;) rgb(239, 156, 130)"/></g></svg>