<svg xmlns="http://www.w3.org/2000/svg"  viewBox="0 0 64 64" width="96px" height="96px"><linearGradient id="cFfFnfxIsZzitGUEaEK3Ca" x1="41" x2="41" y1="22.468" y2="27.426" gradientUnits="userSpaceOnUse"><stop offset="0" stop-color="#d9f7ee"/><stop offset="1" stop-color="#2df19b"/></linearGradient><path fill="url(#cFfFnfxIsZzitGUEaEK3Ca)" d="M44,29l-6-6h5c0.552,0,1,0.448,1,1V29z"/><linearGradient id="cFfFnfxIsZzitGUEaEK3Cb" x1="32.5" x2="32.5" y1="11.34" y2="52.706" gradientUnits="userSpaceOnUse"><stop offset="0" stop-color="#7DE3C3"/><stop offset="1" stop-color="#0BA360"/></linearGradient><path fill="url(#cFfFnfxIsZzitGUEaEK3Cb)" d="M60.969,42c-0.062-0.265-0.224-0.499-0.464-0.639l-17.5-10.225	c-0.313-0.183-0.697-0.183-1.01,0L35.383,35H20v-1c0-1.654-1.346-3-3-3h-4c-1.654,0-3,1.346-3,3v1H6V22c0-0.551,0.448-1,1-1h38	c0.552,0,1,0.449,1,1v9h2v-9c0-1.654-1.346-3-3-3h-7v-2h-2.162l-0.932-3.73C34.572,11.933,33.378,11,32,11H20	c-1.378,0-2.572,0.933-2.905,2.269L16.162,17H14v2H7c-1.654,0-3,1.346-3,3v28c0,1.654,1.346,3,3,3h21v-2H7c-0.552,0-1-0.449-1-1V37	h6c0,1.103,0.897,2,2,2h2c1.103,0,2-0.897,2-2h13.96l-7.465,4.361c-0.301,0.176-0.488,0.496-0.495,0.844s0.169,0.676,0.463,0.863	L31,47.227V50c0,1.654,1.346,3,3,3h17c1.654,0,3-1.346,3-3v-2.588l5-3.322V49h2v-7H60.969z M19.035,13.754	C19.146,13.31,19.542,13,20,13h12c0.458,0,0.854,0.31,0.966,0.754L33.777,17H32v2H20v-2h-1.777L19.035,13.754z M18,35h-6v-1	c0-0.551,0.448-1,1-1h4c0.552,0,1,0.449,1,1V35z M52,47H33v-1.753C33.738,44.77,36.978,44,42.5,44s8.762,0.77,9.5,1.247V47z M39,49	v2h-2v-2H39z M41,49h3v2h-3V49z M46,49h2v2h-2V49z M33,50v-1h2v2h-1C33.448,51,33,50.551,33,50z M51,51h-1v-2h2v1	C52,50.551,51.552,51,51,51z M54,45.01V45c0-2.708-8.042-3-11.5-3c-3.4,0-11.215,0.288-11.476,2.872l-4.104-2.611l15.58-9.103	l15.611,9.121L54,45.01z"/></svg>